<svg xmlns="http://www.w3.org/2000/svg" xmlns:xlink="http://www.w3.org/1999/xlink" version="1.1" x="0px" y="0px" viewBox="0 0 100 125" enable-background="new 0 0 100 100" xml:space="preserve"><g><g><path d="M87.5,51.296c-1.304,0-2.591,0.066-3.864,0.186c2.188-9.865,1.294-20.206-2.657-29.624    c-0.707-1.686-2.641-2.49-4.336-1.795c-3.926,1.606-7.573,3.699-10.915,6.172C62.744,18.68,58.19,11.737,52.342,5.962    c-1.299-1.283-3.387-1.283-4.684,0c-5.849,5.776-10.402,12.72-13.385,20.274c-3.341-2.475-6.988-4.566-10.916-6.174    c-1.698-0.695-3.628,0.11-4.336,1.795c-3.951,9.417-4.846,19.756-2.659,29.624c-1.272-0.119-2.56-0.186-3.862-0.186    c-1.841,0-3.333,1.492-3.333,3.333C9.167,76.89,27.484,95,50,95c0.012-0.002,0.022-0.002,0.033,0c0.004,0,0.007-0.002,0.012-0.002    c22.496-0.022,40.788-18.123,40.788-40.369C90.833,52.788,89.341,51.296,87.5,51.296z M76.033,27.66    c2.671,8.157,2.78,16.92,0.351,25.169c-3.622,1.014-7.045,2.505-10.185,4.409c-1.061-5.635-3.099-11.027-6.011-15.948    C64.274,35.518,69.683,30.853,76.033,27.66z M50,13.174c4.597,5.168,8.113,11.202,10.337,17.68    c-1.475,1.461-2.878,2.997-4.163,4.64c-1.191-1.484-2.465-2.914-3.832-4.264c-1.299-1.283-3.387-1.283-4.684,0    c-1.368,1.351-2.64,2.78-3.831,4.264c-1.286-1.643-2.689-3.178-4.164-4.639C41.885,24.377,45.403,18.344,50,13.174z M23.966,27.66    c6.352,3.193,11.76,7.858,15.845,13.63c-2.912,4.921-4.949,10.314-6.011,15.951c-3.141-1.906-6.563-3.398-10.187-4.414    C21.187,44.579,21.295,35.815,23.966,27.66z M16.017,58.14c16.022,1.624,28.801,14.216,30.466,30.017    C30.46,86.531,17.682,73.94,16.017,58.14z M50.003,75.7c-2.336-5.344-5.81-10.093-10.116-13.949    C40.821,53.156,44.331,45.042,50,38.477c5.669,6.565,9.18,14.68,10.112,23.273C55.808,65.605,52.341,70.356,50.003,75.7z     M53.518,88.156c1.665-15.801,14.443-28.393,30.465-30.017C82.317,73.94,69.539,86.531,53.518,88.156z"/></g></g><text x="0" y="115" fill="#000000" font-size="5px" font-weight="bold" font-family="'Helvetica Neue', Helvetica, Arial-Unicode, Arial, Sans-serif">Created by Jake Dunham</text><text x="0" y="120" fill="#000000" font-size="5px" font-weight="bold" font-family="'Helvetica Neue', Helvetica, Arial-Unicode, Arial, Sans-serif">from the Noun Project</text></svg>