<svg xmlns="http://www.w3.org/2000/svg" xmlns:xlink="http://www.w3.org/1999/xlink" version="1.1" viewBox="0 0 96 120" overflow="hidden" x="0px" y="0px"><path d=" M 70 74 L 60 74 L 60 36 L 70 36 L 70 74 Z M 52 72 C 52 73.1 51.1 74 50 74 C 48.9 74 48 73.1 48 72 L 48 38 C 48 36.9 48.9 36 50 36 C 51.1 36 52 36.9 52 38 L 52 72 Z M 42 72 C 42 73.1 41.1 74 40 74 C 38.9 74 38 73.1 38 72 L 38 38 C 38 36.9 38.9 36 40 36 C 41.1 36 42 36.9 42 38 L 42 72 Z M 32 72 C 32 73.1 31.1 74 30 74 C 28.9 74 28 73.1 28 72 L 28 38 C 28 36.9 28.9 36 30 36 C 31.1 36 32 36.9 32 38 L 32 72 Z M 72 30 L 60 30 L 60 26 L 20 26 L 20 84 C 20 86.2 21.8 88 24 88 L 56 88 C 58.2 88 60 86.2 60 84 L 60 80 L 72 80 C 74.2 80 76 78.2 76 76 L 76 34 C 76 31.8 74.2 30 72 30 Z"/><path d=" M 53 15 C 51.2 15 49.6 15.7 48.4 16.8 C 46.9 15.7 45 15 43 15 C 43 15 43 15 42.9 15 C 42.4 11.1 39 8 35 8 C 31 8 27.6 11.1 27.1 15 C 27.1 15 27.1 15 27 15 C 23.1 15 20 18.1 20 22 L 60 22 C 60 18.1 56.9 15 53 15 Z"/><text x="0" y="111" fill="#000000" font-size="5px" font-weight="bold" font-family="'Helvetica Neue', Helvetica, Arial-Unicode, Arial, Sans-serif">Created by Dumitriu Robert</text><text x="0" y="116" fill="#000000" font-size="5px" font-weight="bold" font-family="'Helvetica Neue', Helvetica, Arial-Unicode, Arial, Sans-serif">from the Noun Project</text></svg>